<?xml version="1.0" encoding="utf-8"?>
<svg xmlns="http://www.w3.org/2000/svg" viewBox="0 0 1200 480" width="1200" height="480">
  <defs>
    <linearGradient id="cpGrad" x1="0" y1="0" x2="0" y2="1">
      <stop offset="0" stop-color="#4A90D9" stop-opacity="0.07"/>
      <stop offset="1" stop-color="#4A90D9" stop-opacity="0.02"/>
    </linearGradient>
    <linearGradient id="apGrad" x1="0" y1="0" x2="0" y2="1">
      <stop offset="0" stop-color="#c44b20" stop-opacity="0.07"/>
      <stop offset="1" stop-color="#c44b20" stop-opacity="0.02"/>
    </linearGradient>
    <linearGradient id="tunableGrad" x1="0" y1="0" x2="0" y2="1">
      <stop offset="0" stop-color="#006d6d" stop-opacity="0.07"/>
      <stop offset="1" stop-color="#006d6d" stop-opacity="0.02"/>
    </linearGradient>
    <filter id="cardShadow" x="-4%" y="-4%" width="108%" height="108%">
      <feDropShadow dx="0" dy="1" stdDeviation="2" flood-color="#2c2c2c" flood-opacity="0.07"/>
    </filter>
    <filter id="zoneShadow" x="-2%" y="-2%" width="104%" height="104%">
      <feDropShadow dx="0" dy="1" stdDeviation="3" flood-color="#2c2c2c" flood-opacity="0.05"/>
    </filter>
  </defs>
  <rect width="1200" height="480" fill="#fffaf7" rx="8"/>
  <polygon points="300,70 110,375 490,375" fill="#f5efe9" stroke="#d4cec6" stroke-width="1" opacity="0.5"/>
  <line x1="300" y1="70" x2="110" y2="375" stroke="#d4cec6" stroke-width="1.5" opacity="0.4"/>
  <line x1="300" y1="70" x2="490" y2="375" stroke="#d4cec6" stroke-width="1.5" opacity="0.4"/>
  <line x1="110" y1="375" x2="490" y2="375" stroke="#d4cec6" stroke-width="1.5" opacity="0.4"/>
  <line x1="110" y1="375" x2="490" y2="375" stroke="#2c2c2c" stroke-width="2" opacity="0.2" stroke-dasharray="6,4"/>
  <g transform="translate(300, 40)">
    <rect x="-42" y="-6" width="84" height="28" rx="14" fill="#ffffff" stroke="#d4cec6" stroke-width="0.75"/>
    <text text-anchor="middle" y="6" fill="#2c2c2c" font-size="15" font-family="system-ui, -apple-system, sans-serif" font-weight="800" letter-spacing="0.5" style="white-space: pre;">C</text>
    <text text-anchor="middle" y="18" fill="#6b6560" font-size="9" font-family="system-ui, -apple-system, sans-serif" font-weight="500" style="white-space: pre;">Consistency</text>
  </g>
  <g transform="translate(90, 395)">
    <rect x="-42" y="-6" width="84" height="28" rx="14" fill="#ffffff" stroke="#d4cec6" stroke-width="0.75"/>
    <text text-anchor="middle" y="6" fill="#2c2c2c" font-size="15" font-family="system-ui, -apple-system, sans-serif" font-weight="800" letter-spacing="0.5" style="white-space: pre;">A</text>
    <text text-anchor="middle" y="18" fill="#6b6560" font-size="9" font-family="system-ui, -apple-system, sans-serif" font-weight="500" style="white-space: pre;">Availability</text>
  </g>
  <g transform="translate(510, 395)">
    <rect x="-60" y="-6" width="120" height="28" rx="14" fill="#ffffff" stroke="#d4cec6" stroke-width="0.75"/>
    <text text-anchor="middle" y="6" fill="#2c2c2c" font-size="15" font-family="system-ui, -apple-system, sans-serif" font-weight="800" letter-spacing="0.5" style="white-space: pre;">P</text>
    <text text-anchor="middle" y="18" fill="#6b6560" font-size="9" font-family="system-ui, -apple-system, sans-serif" font-weight="500" style="white-space: pre;">Partition Tolerance</text>
  </g>
  <text x="300" y="452" text-anchor="middle" fill="#6b6560" font-size="10" font-family="system-ui, -apple-system, sans-serif" font-weight="600" font-style="italic" opacity="0.6" style="white-space: pre;">Partition tolerance is non-negotiable in distributed systems</text>
  <circle cx="380" cy="200" r="20" fill="#4A90D9" opacity="0.08"/>
  <circle cx="380" cy="200" r="10" fill="#4A90D9" opacity="0.12"/>
  <text x="380" y="204" text-anchor="middle" fill="#4A90D9" font-size="10" font-family="system-ui, -apple-system, sans-serif" font-weight="800" style="white-space: pre;">CP</text>
  <circle cx="400" cy="335" r="20" fill="#c44b20" opacity="0.08"/>
  <circle cx="400" cy="335" r="10" fill="#c44b20" opacity="0.12"/>
  <text x="400" y="339" text-anchor="middle" fill="#c44b20" font-size="10" font-family="system-ui, -apple-system, sans-serif" font-weight="800" style="white-space: pre;">AP</text>
  <circle cx="220" cy="200" r="20" fill="#8a847e" opacity="0.06"/>
  <circle cx="220" cy="200" r="10" fill="#8a847e" opacity="0.1"/>
  <text x="220" y="204" text-anchor="middle" fill="#8a847e" font-size="10" font-family="system-ui, -apple-system, sans-serif" font-weight="800" style="white-space: pre;">CA</text>
  <circle cx="300" cy="280" r="22" fill="#006d6d" opacity="0.08" style="" transform="matrix(1.319383, 0, 0, 1.177162, -100.0327, -45.997211)"/>
  <circle cx="300" cy="280" r="11" fill="#006d6d" opacity="0.12" style="" transform="matrix(1.983445, 0, 0, 1.66849, -299.561066, -183.600937)"/>
  <text x="291.503" y="285.37" text-anchor="middle" fill="#006d6d" font-size="7" font-family="system-ui, -apple-system, sans-serif" font-weight="800" style="white-space: pre; font-size: 7px; transform-box: fill-box; transform-origin: 50% 50%;" transform="matrix(0.999976, 0.006857, -0.006857, 0.999976, 4.832139, 0.638349)">TUNABLE</text>
  <line x1="390" y1="200" x2="590" y2="72" stroke="#4A90D9" stroke-width="1" opacity="0.25" stroke-dasharray="4,3"/>
  <line x1="410" y1="335" x2="590" y2="260" stroke="#c44b20" stroke-width="1" opacity="0.25" stroke-dasharray="4,3"/>
  <line x1="322" y1="280" x2="880" y2="72" stroke="#006d6d" stroke-width="1" opacity="0.2" stroke-dasharray="4,3"/>
  <line x1="220" y1="190" x2="220" y2="133.075" stroke="#8a847e" stroke-width="1" opacity="0.15" stroke-dasharray="4,3" style=""/>
  <g transform="matrix(1.020698, 0, 0, 1, 123.100349, 93.324463)" style="">
    <rect width="132.63" height="40" rx="6" fill="#ffffff" stroke="#d4cec6" stroke-width="0.75" stroke-dasharray="4,3" opacity="0.85" style=""/>
    <text x="60" y="16" text-anchor="middle" fill="#8a847e" font-size="9" font-family="system-ui, -apple-system, sans-serif" font-weight="700" style="white-space: pre;">CA (single-node)</text>
    <text x="68.03" y="30.28" text-anchor="middle" fill="#a09a94" font-size="8" font-family="system-ui, -apple-system, sans-serif" style="white-space: pre; font-size: 8px;">Object DBs, standalone RDBMS</text>
  </g>
  <g transform="translate(590, 28)" filter="url(#zoneShadow)">
    <rect width="260" height="210" rx="8" fill="url(#cpGrad)" stroke="#4A90D9" stroke-width="1"/>
    <rect width="260" height="4" rx="8" fill="#4A90D9"/>
    <text x="18" y="28" fill="#4A90D9" font-size="14" font-family="system-ui, -apple-system, sans-serif" font-weight="800" letter-spacing="0.5" style="white-space: pre;">CP</text>
    <text x="40" y="28" fill="#6b6560" font-size="11" font-family="system-ui, -apple-system, sans-serif" font-weight="500" style="white-space: pre;">Consistency + Partition Tolerance</text>
    <text x="18" y="44" fill="#8a847e" font-size="9" font-family="system-ui, -apple-system, sans-serif" font-style="italic" style="white-space: pre;">Errors during partitions, but never wrong answers</text>
    <line x1="18" y1="52" x2="242" y2="52" stroke="#4A90D9" stroke-width="0.5" opacity="0.25"/>
    <g transform="translate(18, 62)">
      <rect width="105" height="28" rx="4" fill="#ffffff" stroke="#e2dbd4" stroke-width="0.5" filter="url(#cardShadow)"/>
      <circle cx="14" cy="14" r="5" fill="#c44b20" opacity="0.15"/>
      <rect x="10" y="11" width="8" height="6" rx="1" fill="none" stroke="#c44b20" stroke-width="0.8"/>
      <text x="28" y="18" fill="#2c2c2c" font-size="10" font-family="system-ui, -apple-system, sans-serif" font-weight="600" style="white-space: pre;">Relational</text>
    </g>
    <g transform="translate(133, 62)">
      <rect width="105" height="28" rx="4" fill="#ffffff" stroke="#e2dbd4" stroke-width="0.5" filter="url(#cardShadow)"/>
      <circle cx="14" cy="14" r="5" fill="#2E86C1" opacity="0.15"/>
      <circle cx="11" cy="14" r="3" fill="none" stroke="#2E86C1" stroke-width="0.8"/>
      <circle cx="17" cy="14" r="3" fill="none" stroke="#2E86C1" stroke-width="0.8"/>
      <text x="28" y="18" fill="#2c2c2c" font-size="10" font-family="system-ui, -apple-system, sans-serif" font-weight="600" style="white-space: pre;">NewSQL</text>
    </g>
    <g transform="translate(18, 96)">
      <rect width="105" height="28" rx="4" fill="#ffffff" stroke="#e2dbd4" stroke-width="0.5" filter="url(#cardShadow)"/>
      <circle cx="14" cy="14" r="5" fill="#7B68EE" opacity="0.15"/>
      <circle cx="11" cy="11" r="2" fill="#7B68EE"/>
      <circle cx="17" cy="11" r="2" fill="#7B68EE"/>
      <circle cx="14" cy="17" r="2" fill="#7B68EE"/>
      <line x1="11" y1="11" x2="17" y2="11" stroke="#7B68EE" stroke-width="0.6"/>
      <line x1="11" y1="11" x2="14" y2="17" stroke="#7B68EE" stroke-width="0.6"/>
      <text x="28" y="18" fill="#2c2c2c" font-size="10" font-family="system-ui, -apple-system, sans-serif" font-weight="600" style="white-space: pre;">Graph</text>
    </g>
    <text x="18" y="148" fill="#8a847e" font-size="8" font-family="system-ui, -apple-system, sans-serif" font-weight="600" letter-spacing="0.5" style="white-space: pre;">EXAMPLES</text>
    <text x="18" y="163" fill="#6b6560" font-size="9.5" font-family="system-ui, -apple-system, sans-serif" style="white-space: pre;">PostgreSQL, CockroachDB, Google Spanner</text>
    <text x="18" y="177" fill="#6b6560" font-size="9.5" font-family="system-ui, -apple-system, sans-serif" style="white-space: pre;">YugabyteDB, Neo4j, Amazon Neptune</text>
    <rect x="18" y="188" width="90" height="16" rx="8" fill="#4A90D9" opacity="0.1"/>
    <text x="63" y="199" text-anchor="middle" fill="#4A90D9" font-size="8" font-family="system-ui, -apple-system, sans-serif" font-weight="700" style="white-space: pre;">REJECTS WRITES</text>
  </g>
  <g transform="translate(590, 252)" filter="url(#zoneShadow)">
    <rect width="260" height="205" rx="8" fill="url(#apGrad)" stroke="#c44b20" stroke-width="1"/>
    <rect width="260" height="4" rx="8" fill="#c44b20"/>
    <text x="18" y="28" fill="#c44b20" font-size="14" font-family="system-ui, -apple-system, sans-serif" font-weight="800" letter-spacing="0.5" style="white-space: pre;">AP</text>
    <text x="40" y="28" fill="#6b6560" font-size="11" font-family="system-ui, -apple-system, sans-serif" font-weight="500" style="white-space: pre;">Availability + Partition Tolerance</text>
    <text x="18" y="44" fill="#8a847e" font-size="9" font-family="system-ui, -apple-system, sans-serif" font-style="italic" style="white-space: pre;">Always responds, but may serve stale data</text>
    <line x1="18" y1="52" x2="242" y2="52" stroke="#c44b20" stroke-width="0.5" opacity="0.25"/>
    <g transform="translate(18, 62)">
      <rect width="105" height="28" rx="4" fill="#ffffff" stroke="#e2dbd4" stroke-width="0.5" filter="url(#cardShadow)"/>
      <circle cx="14" cy="14" r="5" fill="#8FBC5A" opacity="0.15"/>
      <rect x="9" y="10" width="3" height="8" rx="0.5" fill="#8FBC5A"/>
      <rect x="13" y="10" width="3" height="8" rx="0.5" fill="#8FBC5A" opacity="0.7"/>
      <rect x="17" y="10" width="3" height="8" rx="0.5" fill="#8FBC5A" opacity="0.4"/>
      <text x="28" y="18" fill="#2c2c2c" font-size="10" font-family="system-ui, -apple-system, sans-serif" font-weight="600" style="white-space: pre;">Wide-Column</text>
    </g>
    <g transform="translate(133, 62)">
      <rect width="105" height="28" rx="4" fill="#ffffff" stroke="#e2dbd4" stroke-width="0.5" filter="url(#cardShadow)"/>
      <circle cx="14" cy="14" r="5" fill="#4A90D9" opacity="0.15"/>
      <circle cx="13" cy="13" r="4" fill="none" stroke="#4A90D9" stroke-width="0.8"/>
      <line x1="16" y1="16" x2="19" y2="19" stroke="#4A90D9" stroke-width="0.8"/>
      <text x="28" y="18" fill="#2c2c2c" font-size="10" font-family="system-ui, -apple-system, sans-serif" font-weight="600" style="white-space: pre;">Search</text>
    </g>
    <g transform="translate(18, 96)">
      <rect width="105" height="28" rx="4" fill="#ffffff" stroke="#e2dbd4" stroke-width="0.5" filter="url(#cardShadow)"/>
      <circle cx="14" cy="14" r="5" fill="#9B59B6" opacity="0.15"/>
      <circle cx="11" cy="12" r="1.5" fill="#9B59B6"/>
      <circle cx="17" cy="15" r="1.5" fill="#9B59B6"/>
      <circle cx="13" cy="17" r="1.5" fill="#9B59B6"/>
      <text x="28" y="18" fill="#2c2c2c" font-size="10" font-family="system-ui, -apple-system, sans-serif" font-weight="600" style="white-space: pre;">Vector</text>
    </g>
    <text x="18" y="148" fill="#8a847e" font-size="8" font-family="system-ui, -apple-system, sans-serif" font-weight="600" letter-spacing="0.5" style="white-space: pre;">EXAMPLES</text>
    <text x="18" y="163" fill="#6b6560" font-size="9.5" font-family="system-ui, -apple-system, sans-serif" style="white-space: pre;">Cassandra, ScyllaDB, Elasticsearch</text>
    <text x="18" y="177" fill="#6b6560" font-size="9.5" font-family="system-ui, -apple-system, sans-serif" style="white-space: pre;">Pinecone, Milvus, Weaviate</text>
    <rect x="18" y="183" width="90" height="16" rx="8" fill="#c44b20" opacity="0.1"/>
    <text x="63" y="194" text-anchor="middle" fill="#c44b20" font-size="8" font-family="system-ui, -apple-system, sans-serif" font-weight="700" style="white-space: pre;">SERVES STALE</text>
  </g>
  <g transform="translate(880, 28)" filter="url(#zoneShadow)">
    <rect width="290" height="275" rx="8" fill="url(#tunableGrad)" stroke="#006d6d" stroke-width="1"/>
    <rect width="290" height="4" rx="8" fill="#006d6d"/>
    <text x="18" y="28" fill="#006d6d" font-size="14" font-family="system-ui, -apple-system, sans-serif" font-weight="800" letter-spacing="0.5" style="white-space: pre;">TUNABLE</text>
    <text x="96.986" y="28" fill="#6b6560" font-size="11" font-family="system-ui, -apple-system, sans-serif" font-weight="500" style="white-space: pre; font-size: 11px;">Configurable per operation</text>
    <text x="18" y="44" fill="#8a847e" font-size="9" font-family="system-ui, -apple-system, sans-serif" font-style="italic" style="white-space: pre;">Slide between CP and AP per read/write</text>
    <line x1="18" y1="52" x2="272" y2="52" stroke="#006d6d" stroke-width="0.5" opacity="0.25"/>
    <g transform="translate(18, 62)">
      <rect width="120" height="28" rx="4" fill="#ffffff" stroke="#e2dbd4" stroke-width="0.5" filter="url(#cardShadow)"/>
      <circle cx="14" cy="14" r="5" fill="#006d6d" opacity="0.15"/>
      <rect x="10" y="11" width="4" height="6" rx="1" fill="#006d6d" opacity="0.5"/>
      <rect x="15" y="11" width="4" height="6" rx="1" fill="#006d6d"/>
      <text x="28" y="18" fill="#2c2c2c" font-size="10" font-family="system-ui, -apple-system, sans-serif" font-weight="600" style="white-space: pre;">Key-Value</text>
    </g>
    <g transform="translate(148, 62)">
      <rect width="120" height="28" rx="4" fill="#ffffff" stroke="#e2dbd4" stroke-width="0.5" filter="url(#cardShadow)"/>
      <circle cx="14" cy="14" r="5" fill="#2AAA8A" opacity="0.15"/>
      <text x="9" y="18" fill="#2AAA8A" font-size="10" font-family="monospace" font-weight="700" style="white-space: pre;">{}</text>
      <text x="28" y="18" fill="#2c2c2c" font-size="10" font-family="system-ui, -apple-system, sans-serif" font-weight="600" style="white-space: pre;">Document</text>
    </g>
    <g transform="translate(18, 96)">
      <rect width="120" height="28" rx="4" fill="#ffffff" stroke="#e2dbd4" stroke-width="0.5" filter="url(#cardShadow)"/>
      <circle cx="14" cy="14" r="5" fill="#E8734A" opacity="0.15"/>
      <polygon points="14,9 17,17 11,17" fill="#E8734A" opacity="0.7"/>
      <text x="28" y="18" fill="#2c2c2c" font-size="10" font-family="system-ui, -apple-system, sans-serif" font-weight="600" style="white-space: pre;">In-Memory</text>
    </g>
    <g transform="translate(148, 96)">
      <rect width="120" height="28" rx="4" fill="#ffffff" stroke="#e2dbd4" stroke-width="0.5" filter="url(#cardShadow)"/>
      <circle cx="14" cy="14" r="5" fill="#D4A843" opacity="0.15"/>
      <polyline points="9,17 12,12 15,15 18,10" fill="none" stroke="#D4A843" stroke-width="1"/>
      <text x="28" y="18" fill="#2c2c2c" font-size="10" font-family="system-ui, -apple-system, sans-serif" font-weight="600" style="white-space: pre;">Time-Series</text>
    </g>
    <g transform="translate(18, 130)">
      <rect width="120" height="28" rx="4" fill="#ffffff" stroke="#e2dbd4" stroke-width="0.5" filter="url(#cardShadow)"/>
      <circle cx="14" cy="14" r="5" fill="#2C3E50" opacity="0.15"/>
      <circle cx="14" cy="14" r="3.5" fill="none" stroke="#2C3E50" stroke-width="0.7"/>
      <circle cx="14" cy="14" r="1.5" fill="#2C3E50" opacity="0.5"/>
      <text x="28" y="18" fill="#2c2c2c" font-size="10" font-family="system-ui, -apple-system, sans-serif" font-weight="600" style="white-space: pre;">Multi-Model</text>
    </g>
    <text x="18" y="182" fill="#8a847e" font-size="8" font-family="system-ui, -apple-system, sans-serif" font-weight="600" letter-spacing="0.5" style="white-space: pre;">EXAMPLES</text>
    <text x="18" y="197" fill="#6b6560" font-size="9.5" font-family="system-ui, -apple-system, sans-serif" style="white-space: pre;">Redis, DynamoDB, MongoDB, Cosmos DB</text>
    <text x="18" y="211" fill="#6b6560" font-size="9.5" font-family="system-ui, -apple-system, sans-serif" style="white-space: pre;">InfluxDB, ArangoDB, SurrealDB</text>
    <rect x="18" y="220" width="102" height="16" rx="8" fill="#006d6d" opacity="0.1"/>
    <text x="69" y="231" text-anchor="middle" fill="#006d6d" font-size="8" font-family="system-ui, -apple-system, sans-serif" font-weight="700" style="white-space: pre;">YOU CHOOSE</text>
    <g transform="translate(18, 248)">
      <line x1="0" y1="8" x2="250" y2="8" stroke="#d4cec6" stroke-width="2" stroke-linecap="round"/>
      <line x1="0" y1="8" x2="250" y2="8" stroke="url(#sliderGrad)" stroke-width="2" stroke-linecap="round" opacity="0.5"/>
      <circle cx="0" cy="8" r="4" fill="#4A90D9" opacity="0.6"/>
      <circle cx="250" cy="8" r="4" fill="#c44b20" opacity="0.6"/>
      <circle cx="125" cy="8" r="6" fill="#006d6d" stroke="#ffffff" stroke-width="1.5"/>
      <text x="0" y="24" fill="#4A90D9" font-size="8" font-family="system-ui, -apple-system, sans-serif" font-weight="600" style="white-space: pre;">Strong</text>
      <text x="250" y="24" text-anchor="end" fill="#c44b20" font-size="8" font-family="system-ui, -apple-system, sans-serif" font-weight="600" style="white-space: pre;">Eventual</text>
    </g>
  </g>
  <defs>
    <linearGradient id="sliderGrad" x1="0" y1="0" x2="1" y2="0">
      <stop offset="0" stop-color="#4A90D9"/>
      <stop offset="1" stop-color="#c44b20"/>
    </linearGradient>
  </defs>
  <g transform="translate(880, 330)">
    <rect width="290" height="90" rx="8" fill="#ffffff" stroke="#e2dbd4" stroke-width="1" filter="url(#cardShadow)"/>
    <rect width="4" height="90" rx="2" fill="#c44b20"/>
    <text x="20" y="22" fill="#2c2c2c" font-size="12" font-family="system-ui, -apple-system, sans-serif" font-weight="700" style="white-space: pre;">The real choice</text>
    <text x="20" y="40" fill="#6b6560" font-size="10" font-family="system-ui, -apple-system, sans-serif" style="white-space: pre;">Network partitions are inevitable.</text>
    <text x="20" y="56" fill="#6b6560" font-size="10" font-family="system-ui, -apple-system, sans-serif" style="white-space: pre;">When one happens, do you want</text>
    <text x="20" y="74" fill="#6b6560" font-size="11" font-family="system-ui, -apple-system, sans-serif" style="white-space: pre;"><tspan font-weight="700" fill="#4A90D9">correct answers</tspan> or <tspan font-weight="700" fill="#c44b20">available answers</tspan>?</text>
  </g>
  <line x1="570" y1="40" x2="570" y2="440" stroke="#e2dbd4" stroke-width="1" opacity="0.4" stroke-dasharray="2,4"/>
</svg>